<svg width="16" height="17" viewBox="0 0 16 17" fill="none" xmlns="http://www.w3.org/2000/svg">
<path d="M14.1666 6.64146C12.6266 4.22146 10.3733 2.82812 7.99992 2.82812C6.81325 2.82812 5.65992 3.17479 4.60659 3.82146C3.55325 4.47479 2.60659 5.42812 1.83325 6.64146C1.16659 7.68812 1.16659 9.38812 1.83325 10.4348C3.37325 12.8615 5.62659 14.2481 7.99992 14.2481C9.18659 14.2481 10.3399 13.9015 11.3933 13.2548C12.4466 12.6015 13.3933 11.6481 14.1666 10.4348C14.8333 9.39479 14.8333 7.68812 14.1666 6.64146ZM7.99992 11.2348C6.50659 11.2348 5.30659 10.0281 5.30659 8.54146C5.30659 7.05479 6.50659 5.84812 7.99992 5.84812C9.49325 5.84812 10.6933 7.05479 10.6933 8.54146C10.6933 10.0281 9.49325 11.2348 7.99992 11.2348Z"/>
<path d="M8.0001 6.63477C6.95343 6.63477 6.1001 7.4881 6.1001 8.54143C6.1001 9.5881 6.95343 10.4414 8.0001 10.4414C9.04676 10.4414 9.90676 9.5881 9.90676 8.54143C9.90676 7.49477 9.04676 6.63477 8.0001 6.63477Z"/>
</svg>
