<svg width="41" height="40" viewBox="0 0 41 40" fill="none" xmlns="http://www.w3.org/2000/svg">
<path d="M18.5 22L29.5 11" stroke="#017189" stroke-width="1.5" stroke-linecap="round" stroke-linejoin="round"/>
<path d="M29.4996 11L22.9996 29C22.9557 29.0957 22.8853 29.1769 22.7966 29.2338C22.708 29.2906 22.6049 29.3209 22.4996 29.3209C22.3943 29.3209 22.2912 29.2906 22.2025 29.2338C22.1139 29.1769 22.0435 29.0957 21.9996 29L18.4996 22L11.4996 18.5C11.4038 18.4561 11.3227 18.3857 11.2658 18.2971C11.2089 18.2084 11.1787 18.1053 11.1787 18C11.1787 17.8947 11.2089 17.7916 11.2658 17.7029C11.3227 17.6143 11.4038 17.5439 11.4996 17.5L29.4996 11Z" stroke="#017189" stroke-width="1.5" stroke-linecap="round" stroke-linejoin="round"/>
</svg>
