<svg width="48" height="48" viewBox="0 0 48 48" fill="none" xmlns="http://www.w3.org/2000/svg">
<mask id="mask0_1894_1136" style="mask-type:alpha" maskUnits="userSpaceOnUse" x="0" y="0" width="48" height="48">
<circle cx="24" cy="24" r="24" fill="#C4C4C4"/>
</mask>
<g mask="url(#mask0_1894_1136)">
<rect x="-1" width="52" height="48" rx="2" fill="white"/>
<mask id="mask1_1894_1136" style="mask-type:alpha" maskUnits="userSpaceOnUse" x="-1" y="0" width="52" height="48">
<rect x="-1" width="52" height="48" rx="2" fill="white"/>
</mask>
<g mask="url(#mask1_1894_1136)">
<rect x="-1" width="52" height="48" fill="#043CAE"/>
<path fill-rule="evenodd" clip-rule="evenodd" d="M23.2491 10.2618L25 9.59907L26.751 10.2618L26.2381 7.99907L26.751 5.73633L25 6.39907L23.2491 5.73633L23.762 7.99907L23.2491 10.2618ZM23.2491 42.2618L25 41.5991L26.751 42.2618L26.2381 39.9991L26.751 37.7363L25 38.3991L23.2491 37.7363L23.762 39.9991L23.2491 42.2618ZM37.381 25.5991L35.6301 26.2618L36.1429 23.9991L35.6301 21.7363L37.381 22.3991L39.1319 21.7363L38.6191 23.9991L39.1319 26.2618L37.381 25.5991ZM10.8682 26.2618L12.6191 25.5991L14.37 26.2618L13.8572 23.9991L14.37 21.7363L12.6191 22.3991L10.8682 21.7363L11.381 23.9991L10.8682 26.2618ZM35.7223 17.5991L33.9713 18.2618L34.4842 15.9991L33.9713 13.7363L35.7223 14.3991L37.4732 13.7363L36.9604 15.9991L37.4732 18.2618L35.7223 17.5991ZM12.5269 34.2618L14.2778 33.5991L16.0288 34.2618L15.5159 31.9991L16.0288 29.7363L14.2778 30.3991L12.5269 29.7363L13.0397 31.9991L12.5269 34.2618ZM31.1905 11.7427L29.4396 12.4054L29.9524 10.1427L29.4396 7.87992L31.1905 8.54266L32.9415 7.87992L32.4286 10.1427L32.9415 12.4054L31.1905 11.7427ZM17.0586 40.1182L18.8096 39.4555L20.5605 40.1182L20.0477 37.8555L20.5605 35.5927L18.8096 36.2555L17.0586 35.5927L17.5715 37.8555L17.0586 40.1182ZM35.7223 33.5991L33.9713 34.2618L34.4842 31.9991L33.9713 29.7363L35.7223 30.3991L37.4732 29.7363L36.9604 31.9991L37.4732 34.2618L35.7223 33.5991ZM12.5269 18.2618L14.2778 17.5991L16.0288 18.2618L15.5159 15.9991L16.0288 13.7363L14.2778 14.3991L12.5269 13.7363L13.0397 15.9991L12.5269 18.2618ZM31.1905 39.4555L29.4396 40.1182L29.9524 37.8555L29.4396 35.5927L31.1905 36.2555L32.9415 35.5927L32.4286 37.8555L32.9415 40.1182L31.1905 39.4555ZM17.0586 12.4054L18.8096 11.7427L20.5605 12.4054L20.0477 10.1427L20.5605 7.87992L18.8096 8.54266L17.0586 7.87992L17.5715 10.1427L17.0586 12.4054Z" fill="#FFD429"/>
</g>
</g>
</svg>
